<svg version="1.0" xmlns="http://www.w3.org/2000/svg" width="563px" height="563px" viewBox="0 0 563 563" preserveAspectRatio="xMidYMid meet">
<g fill="#000000">
<path d="M0 281.50 l0 -281.50 281.50 0 281.50 0 0 281.50 0 281.50 -281.50 0 -281.50 0 0 -281.50z m506.37 6.60 l0 -219.92 -48.38 0 c-44.37 0 -48.38 0.05 -48.38 0.88 0 2.20 3.02 14.35 5.33 21.33 2.91 8.80 5.06 12.37 7.86 13.36 1.37 0.44 8.47 0.66 24.36 0.66 l22.38 0.05 0 183.91 0 183.91 -183.63 0 -183.63 0 -0.27 -1.21 c-0.16 -0.71 -0.22 -83.41 -0.16 -183.80 l0.16 -182.54 108.20 -0.16 108.15 -0.11 0 -18.14 0 -18.14 -126.73 0 -126.73 0 0 219.92 0 219.92 220.75 0 220.75 0 0 -219.92z m-217.78 160.76 c24.80 -13.14 39.92 -31.01 49.15 -58.22 2.42 -7.09 4.56 -15.01 4.18 -15.34 -0.38 -0.27 -14.35 -3.68 -14.51 -3.52 -0.11 0.11 -0.82 3.13 -1.65 6.76 -6.65 29.63 -20.78 47.23 -47.67 59.21 -3.57 1.59 -6.43 3.08 -6.32 3.30 0.33 0.88 9.90 10.89 10.39 10.89 0.33 0 3.24 -1.37 6.43 -3.08z m105.62 -34.58 l0 -30.51 2.47 0 c4.01 0 25.73 8.36 40.30 15.50 3.68 1.81 6.82 3.24 6.93 3.13 0.05 -0.11 1.87 -4.18 4.01 -9.02 l3.85 -8.80 -2.80 -1.26 c-10.72 -4.89 -35.19 -13.80 -48.55 -17.70 l-6.21 -1.81 0 -19.46 0 -19.41 -10.45 0 -10.45 0 0 59.93 0 59.93 10.45 0 10.45 0 0 -30.51z m-125.52 -11.27 c3.24 -1.21 5.94 -2.31 6.10 -2.42 0.22 -0.22 -5.77 -15.01 -8.63 -21.44 -1.37 -3.02 -1.87 -3.68 -2.69 -3.35 -0.49 0.22 -2.91 1.10 -5.33 1.98 -2.42 0.88 -4.73 1.81 -5.06 2.03 -0.49 0.33 0.55 3.68 4.12 12.92 2.64 6.87 4.95 12.48 5.17 12.48 0.22 0 3.08 -0.99 6.32 -2.20z m29.69 -8.03 c3.24 -1.37 5.99 -2.58 6.10 -2.69 0.16 -0.11 -8.58 -22.93 -8.91 -23.26 -0.11 -0.11 -3.08 0.60 -6.60 1.54 l-6.32 1.76 1.10 2.86 c0.55 1.54 2.69 7.20 4.73 12.59 2.03 5.33 3.74 9.73 3.85 9.73 0.05 0 2.80 -1.15 6.05 -2.53z m-5.06 -51.08 c16.22 -1.26 39.48 -3.90 44.15 -4.95 l1.21 -0.27 0 -16.55 c0 -15.45 -0.05 -16.49 -0.93 -16.22 -3.96 1.15 -31.78 4.73 -46.07 5.94 -11.05 0.88 -45.63 0.88 -52.67 -0.05 -15.12 -1.92 -20.23 -5.39 -23.37 -15.72 -0.71 -2.31 -0.88 -8.30 -1.04 -39.31 l-0.22 -36.56 4.56 -0.71 c3.90 -0.66 51.63 -9.29 74.83 -13.53 4.18 -0.82 8.47 -1.43 9.51 -1.43 1.76 0 1.87 0.11 1.87 1.92 0 2.20 -0.88 4.01 -5.77 12.37 -7.20 12.10 -17.87 25.02 -29.08 35.19 -3.52 3.19 -6.38 5.94 -6.38 6.10 0 0.44 9.40 6.98 19.24 13.36 l7.42 4.89 6.27 -6.54 c21.61 -22.49 38.54 -46.29 53.22 -74.77 2.80 -5.50 5.11 -10.23 5.11 -10.50 0 -0.49 -15.12 -12.04 -20.95 -16 l-2.58 -1.70 -5.39 1.04 c-6.60 1.26 -31.50 5.61 -67.85 11.88 -14.95 2.58 -30.02 5.17 -33.43 5.72 -3.46 0.60 -7.26 1.10 -8.41 1.10 l-2.14 0 0 -31.61 0 -31.61 -17.59 0 -17.59 0 -0.11 34.75 -0.16 34.80 -4.12 0.71 c-2.25 0.44 -15.45 2.69 -29.30 5.06 -13.86 2.31 -25.29 4.34 -25.40 4.51 -0.22 0.22 4.07 30.79 4.29 31.06 0.05 0.05 11.99 -2.03 26.56 -4.67 14.51 -2.58 26.83 -4.51 27.33 -4.34 0.88 0.33 0.93 2.97 0.93 30.73 0 30.84 0.49 43.10 1.98 50.09 3.96 18.97 14.90 29.25 35.68 33.70 5.88 1.21 17.81 2.75 25.02 3.19 7.59 0.44 41.46 -0.22 51.41 -1.04z m72.19 -189.74 c7.97 -1.87 8.36 -2.03 8.03 -3.13 -3.13 -10.28 -12.59 -29.96 -19.41 -40.36 l-4.34 -6.71 -10.17 3.41 -10.12 3.41 1.32 2.09 c4.40 6.93 14.02 28.26 17.81 39.48 l1.81 5.22 3.30 -0.71 c1.87 -0.38 7.15 -1.59 11.77 -2.69z m44.09 -0.27 c5.88 -1.59 10.94 -3.02 11.16 -3.24 1.04 -0.88 -6.71 -19.52 -12.26 -29.69 -4.07 -7.37 -7.81 -13.03 -11.55 -17.15 -2.20 -2.53 -2.42 -2.64 -5.22 -2.64 -3.57 0 -3.85 -0.38 -4.29 -5.50 -0.49 -5.11 -2.58 -12.98 -5.61 -20.73 l-2.64 -6.76 -14.73 0 c-9.13 0 -14.79 0.22 -14.79 0.55 0 0.27 0.49 1.87 1.15 3.52 1.37 3.74 5.17 9.57 11.77 18.20 9.24 12.10 14.68 20.89 22.32 36.12 4.78 9.57 10.28 22.05 11.82 27 0.55 1.70 1.21 3.13 1.54 3.13 0.33 0 5.44 -1.26 11.33 -2.80z"></path>
</g>
<g fill="#E34234">
<path d="M63.23 288.10 l0 -221.57 128.38 0 128.38 0 0 19.79 0 19.79 -108.15 0.11 -108.20 0.16 -0.16 180.89 c-0.05 99.51 0 181.44 0.16 182.15 l0.27 1.21 181.99 0 181.99 0 0 -182.26 0 -182.26 -22.38 -0.05 c-15.89 0 -22.98 -0.22 -24.36 -0.66 -1.32 -0.44 -2.47 -1.48 -3.63 -3.19 -2.91 -4.40 -8.41 -22.71 -9.90 -33.04 l-0.33 -2.64 50.36 0 50.36 0 0 221.57 0 221.57 -222.40 0 -222.40 0 0 -221.57z"></path>
</g>
<g fill="#FFFFFF">
<path d="M274.13 447.38 l-6.49 -7.20 2.09 -0.99 c17.21 -7.81 25.35 -12.87 33.21 -20.73 10.94 -11 17.15 -23.26 21.28 -42.06 0.99 -4.62 1.76 -6.93 2.20 -6.93 1.37 0 16.93 4.01 17.43 4.45 0.71 0.66 -1.43 9.40 -4.45 18.36 -7.86 23.15 -20.78 40.47 -39.04 52.34 -5.28 3.46 -17.81 10.06 -18.91 10.01 -0.44 0 -3.68 -3.30 -7.31 -7.26z"></path>
<path d="M371.67 384.86 l0 -61.58 12.10 0 12.10 0 0 19.41 0 19.46 6.21 1.81 c18.42 5.39 52.07 18.20 52.07 19.85 0 0.55 -3.57 9.07 -7.92 18.75 l-1.37 3.13 -8.14 -4.07 c-11.71 -5.83 -37.33 -16.22 -40.03 -16.22 -0.71 0 -0.82 3.41 -0.82 30.51 l0 30.51 -12.10 0 -12.10 0 0 -61.58z"></path>
<path d="M255.33 393.83 c-2.97 -7.81 -5.44 -14.40 -5.44 -14.68 0 -0.49 2.36 -1.48 10.61 -4.51 l5.11 -1.87 1.98 4.29 c3.08 6.71 10.12 24.41 9.84 24.69 -0.33 0.38 -15.67 6.21 -16.22 6.21 -0.22 0 -2.86 -6.38 -5.88 -14.13z"></path>
<path d="M290.68 399.60 c-0.11 -0.38 -2.47 -6.65 -5.22 -13.91 -2.75 -7.26 -5.06 -13.53 -5.17 -13.97 -0.11 -0.55 1.76 -1.26 6.43 -2.58 3.63 -1.04 7.48 -1.92 8.52 -1.98 l1.87 -0.16 5.11 13.14 c2.80 7.26 5.06 13.25 4.95 13.31 -0.27 0.33 -15.67 6.82 -16.11 6.82 -0.05 0 -0.22 -0.33 -0.38 -0.66z"></path>
<path d="M240.26 346.60 c-7.20 -0.44 -19.13 -1.98 -25.02 -3.19 -20.78 -4.45 -31.72 -14.73 -35.68 -33.70 -1.48 -6.98 -1.98 -19.24 -1.98 -50.03 0 -16.66 -0.16 -30.46 -0.38 -30.57 -0.27 -0.11 -12.43 1.92 -27.11 4.56 -14.68 2.69 -26.83 4.67 -27.05 4.45 -0.38 -0.33 -5.44 -34.31 -5.17 -34.58 0.11 -0.05 11.77 -2.09 25.95 -4.51 14.18 -2.42 27.55 -4.67 29.63 -5.06 l3.85 -0.71 0.16 -34.80 0.11 -34.75 19.24 0 19.24 0 0 31.61 c0 18.36 0.22 31.61 0.49 31.61 0.27 0 3.30 -0.49 6.76 -1.10 3.41 -0.55 18.47 -3.13 33.43 -5.72 43.43 -7.48 61.91 -10.72 69 -12.15 l6.60 -1.32 3.68 2.42 c4.73 3.13 21.17 15.50 21.66 16.27 0.44 0.77 -8.30 18.31 -14.07 28.26 -9.84 16.77 -20.89 32.44 -32.49 45.91 -7.04 8.25 -19.57 21.44 -20.34 21.44 -1.21 0 -30.73 -20.12 -30.73 -20.95 0 -0.22 0.38 -0.66 0.88 -0.93 0.44 -0.22 3.79 -3.19 7.42 -6.49 7.70 -6.98 15.45 -15.56 21.55 -23.75 5.55 -7.48 14.07 -21.77 13.42 -22.43 -0.11 -0.11 -3.68 0.38 -7.86 1.15 -23.26 4.29 -70.98 12.92 -74.88 13.58 l-4.56 0.71 0.22 34.91 c0.16 29.47 0.33 35.35 1.04 37.66 3.13 10.34 8.30 13.80 23.37 15.72 7.04 0.88 38.43 0.93 49.37 0 14.57 -1.15 45.08 -5.17 49.37 -6.43 0.88 -0.27 0.93 0.82 0.93 18.14 l0 18.47 -1.21 0.27 c-4.67 1.04 -27.77 3.63 -44.15 4.95 -9.90 0.82 -46.73 1.48 -54.71 1.04z"></path>
<path d="M347.04 154.06 c-4.07 -11.88 -12.59 -30.68 -18.36 -40.41 -1.21 -2.03 -2.14 -3.85 -1.98 -3.96 0.49 -0.55 21.72 -7.59 22.98 -7.64 1.15 -0.05 2.03 0.88 5.61 6.27 4.51 6.71 12.92 22.60 15.83 29.96 3.46 8.52 5.50 15.17 4.78 15.39 -2.97 0.99 -24.36 5.77 -25.84 5.77 -1.04 0 -1.48 -0.82 -3.02 -5.39z"></path>
<path d="M396.30 158.56 c-0.16 -0.27 -0.71 -1.87 -1.26 -3.52 -1.59 -4.95 -7.15 -17.59 -11.77 -26.83 -7.70 -15.45 -13.09 -24.08 -23.75 -38.16 -8.03 -10.56 -10.61 -15.17 -12.26 -21.99 l-0.33 -1.54 16.93 0 16.99 0 2.64 6.76 c3.02 7.75 5.11 15.61 5.61 20.73 0.44 5.22 0.82 5.66 3.96 5.22 l2.64 -0.33 2.64 2.91 c6.27 6.93 13.03 18.36 18.58 31.56 3.74 8.80 7.26 18.25 6.93 18.58 -0.33 0.33 -23.04 6.38 -25.29 6.71 -1.10 0.22 -2.14 0.11 -2.25 -0.11z"></path>
</g>
</svg>
